<?xml version="1.0" encoding="UTF-8"?>
<svg id="Ebene_2" data-name="Ebene 2" xmlns="http://www.w3.org/2000/svg" xmlns:xlink="http://www.w3.org/1999/xlink" viewBox="0 0 383.36 281.59">
  <defs>
    <style>
      .cls-1 {
        fill: #000;
      }

      .cls-1, .cls-2 {
        stroke-width: 0px;
      }

      .cls-2 {
        fill: url(#Unbenannter_Verlauf_7);
      }
    </style>
    <linearGradient id="Unbenannter_Verlauf_7" data-name="Unbenannter Verlauf 7" x1=".5" y1="140.85" x2="382.64" y2="140.85" gradientUnits="userSpaceOnUse">
      <stop offset="0" stop-color="#b61100"/>
      <stop offset=".15" stop-color="#af0f00"/>
      <stop offset=".37" stop-color="#9c0d00"/>
      <stop offset=".63" stop-color="#7d0800"/>
      <stop offset=".92" stop-color="#520100"/>
      <stop offset="1" stop-color="#460000"/>
    </linearGradient>
  </defs>
  <g id="earth">
    <g>
      <path class="cls-2" d="M279.88,281.09c-1.28,0-2.47-.58-3.26-1.59l-6.89-8.82-6.11-10.7-19.72-21.13c-1.2-1.29-2.63-2.3-4.24-3.01l-16.2-7.09c-3.79-1.66-6.93-4.42-9.06-7.97l-5.84-9.74-13.55-20.33c-1.21-1.81-2.76-3.32-4.61-4.47l-6.78-4.24c-.73-.46-1.58-.7-2.44-.7-1.23,0-2.39.48-3.26,1.35-.98.98-2.29,1.52-3.67,1.52-.42,0-.85-.05-1.26-.15l-2.99-.75-1.73-.7c-2.38-.95-4.88-1.43-7.43-1.43-1.63,0-3.27.2-4.85.6l-.13.03-4.66,4.66c-1.97,1.97-4.59,3.05-7.38,3.05-1.95,0-3.86-.55-5.52-1.58l-4.8-3-14.46-17.35c-.57-.68-1.3-1.22-2.11-1.57l-5.93-2.54c-.34-.15-.7-.22-1.06-.22-.78,0-1.53.35-2.04.95-.51.6-.72,1.37-.59,2.16l.89,5.36,3.84,6.39c.57.94,1.3,1.76,2.18,2.42l9.5,7.12c.26.2.42.49.45.82.02.33-.1.64-.33.87-2.19,2.19-3.87,4.91-4.85,7.85l-1.53,4.6-2.22,1.11c-.17.09-.37.13-.57.13-.14,0-.27-.02-.4-.07l-1.83-.61c-1.1-.37-1.88-1.3-2.04-2.45l-.84-5.89c-.26-1.83-1.29-3.47-2.83-4.5-1.51-1.01-2.81-2.27-3.87-3.75l-11.87-16.62c-.55-.77-1.44-1.23-2.38-1.23-.85,0-1.65.37-2.21,1.01l-17.88,20.63-10.31,13.23-16.49,13.99c-4.99,4.23-10.29,7.67-15.75,10.22-2.98,1.39-5.24,2.12-6.52,2.12-.35,0-.62-.06-.8-.16-2.88-1.71-5.88-9.15-5.91-9.22l-.08-.19-6.63-2.8c-3.34-1.41-5.5-4.66-5.5-8.28,0-2.92,1.19-5.77,3.26-7.82l6.08-6.04c1.86-1.84,3.25-4.14,4.01-6.65l3.87-12.64c.6-1.97,2.39-3.29,4.44-3.29h10.5c4.52,0,8.59-2.69,10.38-6.84,1.11-2.59,0-5.58-2.53-6.81-1.89-.92-2.87-2.99-2.38-5.04l2.07-8.65c.79-3.31,3.71-5.62,7.11-5.62.27,0,.54.01.81.05l2.46.27c.32.04.64.05.96.05,2.63,0,5.09-1.17,6.76-3.21l7.65-9.38c1.21-1.48,2.14-3.15,2.77-4.96l4.02-11.6c.29-.84.72-1.62,1.28-2.31l4.98-6.2c.59-.73,1.46-1.15,2.39-1.15s1.77.4,2.36,1.1l2.24,2.68c1.48,1.78,3.66,2.8,5.98,2.8,1.35,0,2.68-.35,3.86-1.03l5.53-3.16,3.18-5.3c.89-1.48,2.29-2.57,3.94-3.07l12.77-3.83,5.04-11.33c.72-1.61,1.96-2.96,3.51-3.81l11.73-6.4c1.74-.95,2.82-2.76,2.82-4.74v-1.23c0-3.06-2.49-5.55-5.55-5.55-1.8,0-3.51.78-4.68,2.15l-5.74,6.66c-1.04,1.21-2.56,1.91-4.16,1.91h-2.36c-1.63,0-3.09-.84-3.91-2.25-.82-1.41-.82-3.1,0-4.51l1.84-3.2,6.54-7.61c1.69-1.97,1.96-4.8.67-7.05l-1.83-3.21c-1.02-1.78-2.92-2.89-4.97-2.89-.78,0-1.54.16-2.25.46l-2.89,1.24c-2.39,1.02-4.35,2.87-5.51,5.2l-4.37,8.74-6.75,8.1c-.63.76-1.01,1.68-1.09,2.67l-1.22,14.65c-.11,1.29-.89,2.44-2.05,3.02l-4.25,2.12c-.21.1-.42.15-.64.15-.69,0-1.44-.55-1.44-1.45v-2.88l2.08-5.19c.65-1.62.4-3.5-.65-4.9l-1.33-1.77c-.57-.76-1.45-1.2-2.41-1.2-.8,0-1.56.31-2.12.88-1.15,1.15-2.67,1.78-4.29,1.78-.44,0-.88-.05-1.32-.14l-2.14-.47c-4.21-.94-6.95-5.14-6.11-9.37l.63-3.17c.48-2.39,1.94-4.51,4.01-5.8l8.8-5.5c.15-.1,12.99-8.79,16.79-10.69,3.13-1.57,4.72-3.15,6.25-4.68,1.12-1.12,4.34-8.5,4.7-9.34L121.19.6l4.41,1.32c3.58,1.07,6.43,3.67,7.81,7.14l1.06,2.65c1.85,4.63,4.81,8.84,8.54,12.15l3.13,2.79h.19c5.01,0,9.29-3.58,10.19-8.5l.47-2.59c.72-3.94,2.45-7.65,5-10.73l3.5-4.22c44.8,18.14,84.09,43.79,116.79,76.22,26.23,26.01,48.3,56.43,65.6,90.41,26.29,51.62,33.47,96.01,34.75,105.33l-12.18-15.57c-.8-1.02-1.4-2.17-1.79-3.41l-6.06-19.4c-.67-2.14-1.72-4.1-3.13-5.83l-11.29-13.9c-2.15-2.65-5.35-4.17-8.76-4.17-2.46,0-4.79.78-6.76,2.26l-1.62,1.21c-1.59,1.19-2.78,2.89-3.35,4.79l-3.4,11.32c-.26.85-.35,1.73-.27,2.61l.77,9.19c.42,5.01-.87,10.08-3.63,14.28l-3.11,4.74c-1.59,2.42-3.98,4.25-6.74,5.13l-9.87,3.17c-3.18,1.02-6.19,2.49-8.95,4.37l-10.3,7.01c-.69.47-1.49.72-2.32.72Z"/>
      <path class="cls-1" d="M121.44,1.19l4.02,1.2c3.43,1.03,6.16,3.52,7.49,6.85l1.06,2.65c1.88,4.71,4.88,8.97,8.67,12.34l2.99,2.66.28.25h.38c5.25,0,9.74-3.75,10.68-8.91l.47-2.59c.7-3.85,2.39-7.48,4.9-10.5l3.27-3.94c44.59,18.11,83.7,43.66,116.27,75.96,26.19,25.97,48.23,56.34,65.51,90.26,24.82,48.73,32.59,91.01,34.45,103.35l-11.02-14.09c-.76-.98-1.34-2.07-1.71-3.25l-6.06-19.4c-.69-2.19-1.77-4.21-3.22-6l-11.29-13.9c-2.25-2.77-5.58-4.35-9.15-4.35-2.56,0-5.01.81-7.06,2.36l-1.62,1.21c-1.7,1.27-2.92,3.02-3.52,5.05l-3.4,11.32c-.27.91-.37,1.85-.29,2.8l.77,9.19c.41,4.9-.85,9.86-3.55,13.97l-3.11,4.74c-1.53,2.33-3.83,4.08-6.48,4.93l-9.87,3.17c-3.22,1.04-6.28,2.53-9.07,4.43l-10.3,7.01c-.61.41-1.31.63-2.04.63-1.13,0-2.17-.51-2.86-1.4l-6.85-8.77-6.09-10.65-.06-.1-.08-.09-19.68-21.09c-1.25-1.34-2.73-2.39-4.41-3.12l-16.2-7.09c-3.7-1.62-6.75-4.3-8.83-7.77l-5.87-9.78-13.54-20.31c-1.25-1.87-2.85-3.43-4.76-4.62l-6.78-4.24c-.81-.51-1.75-.78-2.71-.78-1.37,0-2.65.53-3.61,1.5-.89.89-2.07,1.38-3.32,1.38-.38,0-.77-.05-1.14-.14l-2.93-.73-1.73-.69c-2.43-.97-5-1.47-7.62-1.47-1.68,0-3.35.21-4.97.61l-.27.07-.2.2-4.57,4.57c-1.87,1.88-4.37,2.91-7.02,2.91-1.86,0-3.68-.52-5.26-1.51l-4.74-2.96-14.41-17.29c-.62-.74-1.41-1.33-2.3-1.71l-5.93-2.54c-.4-.17-.82-.26-1.25-.26-.93,0-1.81.41-2.42,1.13-.6.71-.86,1.64-.7,2.57l.88,5.26.03.19.1.16,3.79,6.31c.6,1,1.38,1.86,2.31,2.56l9.5,7.12c.2.15.24.35.25.45,0,.11,0,.31-.18.48-2.25,2.25-3.97,5.03-4.97,8.04l-1.47,4.4-2.03,1.02c-.11.05-.23.08-.34.08-.08,0-.16-.01-.24-.04l-1.82-.61c-.92-.31-1.57-1.09-1.71-2.04l-.84-5.89c-.28-1.97-1.39-3.74-3.05-4.84-1.46-.97-2.72-2.19-3.74-3.62l-11.87-16.62c-.64-.9-1.68-1.43-2.79-1.43-.99,0-1.94.43-2.59,1.18l-17.88,20.63-.02.02-.02.02-10.27,13.17-16.45,13.96c-4.95,4.21-10.21,7.62-15.63,10.14-3.69,1.72-5.46,2.08-6.31,2.08-.37,0-.51-.07-.54-.09-2.27-1.35-4.89-6.94-5.7-8.98l-.16-.39-.38-.16-6.44-2.72c-3.15-1.33-5.19-4.4-5.19-7.82,0-2.78,1.13-5.51,3.11-7.47l6.08-6.04c1.92-1.9,3.35-4.27,4.14-6.85l3.87-12.64c.54-1.75,2.13-2.93,3.96-2.93h10.5c4.72,0,8.98-2.8,10.84-7.15,1.21-2.83,0-6.11-2.77-7.45-1.68-.82-2.55-2.66-2.11-4.47l2.06-8.65c.74-3.08,3.46-5.23,6.62-5.23.25,0,.51.01.76.04l2.46.27c.34.04.68.06,1.02.06,2.78,0,5.39-1.24,7.15-3.39l7.65-9.38c1.25-1.53,2.2-3.25,2.85-5.11l4.02-11.6c.27-.79.68-1.52,1.2-2.16l4.98-6.2c.49-.61,1.22-.96,2-.96.76,0,1.48.34,1.97.92l2.24,2.68c1.58,1.89,3.9,2.98,6.36,2.98,1.44,0,2.86-.38,4.11-1.09l5.42-3.09.23-.13.13-.22,3.11-5.19c.82-1.37,2.12-2.38,3.66-2.84l12.55-3.77.44-.13.19-.42,4.94-11.12c.67-1.51,1.84-2.78,3.29-3.57l11.73-6.4c1.9-1.03,3.08-3.02,3.08-5.18v-1.23c0-3.33-2.71-6.05-6.05-6.05-1.95,0-3.79.85-5.06,2.32l-5.74,6.66c-.95,1.1-2.33,1.73-3.78,1.73h-2.36c-1.45,0-2.75-.75-3.47-2-.73-1.26-.73-2.76,0-4.01l1.79-3.12,6.53-7.62c1.82-2.13,2.12-5.19.72-7.63l-1.83-3.21c-1.11-1.94-3.18-3.14-5.41-3.14-.85,0-1.67.17-2.45.5l-2.89,1.24c-2.5,1.07-4.55,3-5.77,5.44l-4.35,8.69-6.71,8.05c-.7.84-1.12,1.86-1.21,2.95l-1.22,14.65c-.09,1.11-.77,2.12-1.77,2.62l-4.25,2.12c-.14.07-.28.1-.42.1-.45,0-.94-.36-.94-.95v-2.79l2.04-5.1c.71-1.79.44-3.85-.71-5.39l-1.32-1.77c-.67-.89-1.69-1.4-2.81-1.4-.94,0-1.81.36-2.48,1.03-1.05,1.05-2.45,1.63-3.94,1.63-.41,0-.81-.04-1.21-.13l-2.14-.47c-3.95-.88-6.52-4.82-5.72-8.79l.63-3.17c.45-2.26,1.83-4.25,3.78-5.48l8.83-5.52c.13-.09,12.95-8.76,16.72-10.65,3.21-1.6,4.82-3.22,6.38-4.78,1.12-1.12,3.92-7.47,4.78-9.45L121.44,1.19M165.35,0l-3.74,4.5c-2.62,3.15-4.38,6.93-5.11,10.96l-.47,2.59c-.85,4.69-4.93,8.09-9.7,8.09l-2.99-2.66c-3.69-3.28-6.57-7.38-8.4-11.96l-1.06-2.65c-1.44-3.59-4.43-6.33-8.13-7.43l-4.8-1.44-10.76,20.02s-3.51,8.1-4.59,9.18c-1.53,1.53-3.06,3.06-6.12,4.59-3.87,1.94-16.83,10.71-16.83,10.71l-8.8,5.5c-2.2,1.37-3.73,3.59-4.24,6.13l-.63,3.17c-.91,4.53,1.98,8.96,6.49,9.96l2.14.47c.47.11.95.16,1.42.16,1.72,0,3.4-.68,4.64-1.92.49-.49,1.13-.73,1.77-.73.76,0,1.51.34,2.01,1l1.32,1.77c.95,1.27,1.17,2.94.58,4.42l-2.11,5.28v2.98c0,1.13.92,1.95,1.94,1.95.29,0,.58-.07.87-.21l4.25-2.12c1.32-.66,2.2-1.96,2.32-3.43l1.22-14.65c.07-.88.42-1.71.98-2.39l6.78-8.14,4.4-8.8c1.11-2.23,2.98-3.98,5.26-4.96l2.89-1.24c.67-.29,1.37-.42,2.06-.42,1.83,0,3.58.96,4.54,2.63l1.83,3.21c1.18,2.07.94,4.67-.62,6.48l-6.59,7.69-1.84,3.2c-1.92,3.34.49,7.52,4.34,7.52h2.36c1.74,0,3.4-.76,4.54-2.08l5.74-6.66c1.08-1.25,2.65-1.97,4.3-1.97,2.79,0,5.05,2.26,5.05,5.05v1.23c0,1.79-.98,3.44-2.55,4.3l-11.73,6.4c-1.65.9-2.96,2.32-3.73,4.04l-4.94,11.12-12.55,3.77c-1.77.53-3.28,1.7-4.23,3.29l-3.11,5.19-5.42,3.09c-1.13.65-2.38.96-3.61.96-2.1,0-4.17-.91-5.6-2.62l-2.24-2.68c-.71-.86-1.73-1.28-2.74-1.28-1.03,0-2.07.45-2.78,1.33l-4.98,6.2c-.59.74-1.05,1.57-1.36,2.46l-4.02,11.6c-.61,1.75-1.51,3.37-2.68,4.8l-7.65,9.38c-1.57,1.93-3.92,3.03-6.37,3.03-.3,0-.61-.02-.91-.05l-2.46-.27c-.29-.03-.58-.05-.87-.05-3.58,0-6.75,2.45-7.6,6l-2.06,8.65c-.54,2.26.56,4.59,2.65,5.6,2.29,1.11,3.29,3.83,2.29,6.16-1.7,3.97-5.6,6.54-9.92,6.54h-10.5c-2.26,0-4.26,1.48-4.92,3.64l-3.87,12.64c-.75,2.43-2.08,4.65-3.89,6.44l-6.08,6.04c-2.18,2.16-3.41,5.11-3.41,8.18,0,3.82,2.29,7.26,5.8,8.74l6.44,2.72s3.06,7.65,6.12,9.47c.27.16.62.23,1.06.23,1.56,0,4.08-.94,6.73-2.17,5.73-2.67,11.03-6.19,15.86-10.29l16.53-14.02,10.33-13.25,17.88-20.63c.49-.56,1.16-.84,1.83-.84.75,0,1.49.34,1.98,1.02l11.87,16.62c1.09,1.52,2.44,2.83,4,3.87,1.42.95,2.38,2.46,2.62,4.15l.84,5.89c.19,1.32,1.11,2.43,2.38,2.85l1.82.61c.18.06.37.09.56.09.27,0,.54-.06.79-.19l2.41-1.2,1.6-4.8c.96-2.88,2.58-5.5,4.73-7.65.7-.7.62-1.85-.17-2.45l-9.5-7.12c-.83-.62-1.52-1.39-2.05-2.28l-3.79-6.31-.88-5.26c-.23-1.39.87-2.53,2.14-2.53.28,0,.57.06.86.18l5.93,2.54c.75.32,1.41.81,1.93,1.43l14.51,17.42,4.87,3.04c1.79,1.12,3.79,1.66,5.79,1.66,2.82,0,5.62-1.09,7.73-3.2l4.57-4.57c1.56-.39,3.15-.58,4.73-.58,2.47,0,4.93.47,7.25,1.4l1.79.72,2.99.75c.46.11.92.17,1.38.17,1.49,0,2.95-.59,4.03-1.67h0c.79-.79,1.84-1.2,2.91-1.2.75,0,1.5.2,2.18.62l6.78,4.24c1.78,1.11,3.3,2.59,4.46,4.33l13.54,20.31,5.84,9.74c2.17,3.62,5.42,6.48,9.29,8.17l16.2,7.09c1.54.67,2.93,1.66,4.08,2.89l19.68,21.09,6.12,10.71,6.89,8.82c.91,1.16,2.27,1.78,3.65,1.78.9,0,1.81-.26,2.6-.8l10.3-7.01c2.72-1.85,5.69-3.3,8.82-4.31l9.87-3.17c2.88-.93,5.35-2.81,7.01-5.33l3.11-4.74c2.83-4.32,4.14-9.46,3.71-14.6l-.77-9.19c-.07-.82.02-1.64.25-2.43l3.4-11.32c.54-1.81,1.65-3.4,3.17-4.54l1.62-1.21c1.94-1.45,4.21-2.16,6.46-2.16,3.14,0,6.25,1.37,8.37,3.98l11.29,13.9c1.36,1.68,2.4,3.6,3.04,5.67l6.06,19.4c.4,1.29,1.04,2.5,1.87,3.57l13.3,17S362.68,79.7,165.35,0h0Z"/>
    </g>
  </g>
</svg>