<?xml version="1.0" encoding="UTF-8"?>
<svg id="Ebene_2" data-name="Ebene 2" xmlns="http://www.w3.org/2000/svg" xmlns:xlink="http://www.w3.org/1999/xlink" viewBox="0 0 302.78 335.43">
  <defs>
    <style>
      .cls-1 {
        fill: #000;
      }

      .cls-1, .cls-2, .cls-3 {
        stroke-width: 0px;
      }

      .cls-2 {
        fill: url(#Unbenannter_Verlauf_7-2);
      }

      .cls-3 {
        fill: url(#Unbenannter_Verlauf_7);
      }
    </style>
    <linearGradient id="Unbenannter_Verlauf_7" data-name="Unbenannter Verlauf 7" x1=".5" y1="167.72" x2="302.28" y2="167.72" gradientUnits="userSpaceOnUse">
      <stop offset="0" stop-color="#b61100"/>
      <stop offset=".15" stop-color="#af0f00"/>
      <stop offset=".37" stop-color="#9c0d00"/>
      <stop offset=".63" stop-color="#7d0800"/>
      <stop offset=".92" stop-color="#520100"/>
      <stop offset="1" stop-color="#460000"/>
    </linearGradient>
    <linearGradient id="Unbenannter_Verlauf_7-2" data-name="Unbenannter Verlauf 7" x1="251.62" y1="244.48" x2="276.12" y2="244.48" xlink:href="#Unbenannter_Verlauf_7"/>
  </defs>
  <g id="earth">
    <g>
      <g>
        <path class="cls-3" d="M211.4,334.93c-1.17,0-2.33-.29-3.37-.83l-25.48-13.35c-1.07-.56-2.17-1.1-3.26-1.59l-15.19-6.91-17.41-6.97c-3.36-1.34-5.91-4.24-6.81-7.75-1.95-7.57-3.03-12.51-3.03-13.91,0-3.22-8.43-9.46-9.39-10.16l-7.51-8.2c-1.85-2.02-2.64-4.82-2.1-7.51l3.68-18.42,1.29-3.86c3.1-9.32,2.03-19.51-2.95-27.98l-5.75-9.77c-1.24-2.11-2.78-4.04-4.58-5.71l-28.91-27.03c-3.91-3.65-9-5.66-14.34-5.66-.62,0-1.25.03-1.87.08l-12.71,1.14c-1.06.09-2.13.14-3.19.14-5.55,0-11.11-1.31-16.07-3.79l-17.21-8.6c-2.73-1.36-5.33-3.01-7.73-4.89-1.44-1.13-2.27-2.82-2.27-4.65v-17.85c0-1.73-.21-3.47-.63-5.15l-3.33-13.33c-.79-3.16-.98-6.4-.55-9.62l.78-5.92c.43-3.31,1.72-6.47,3.71-9.15l22.12-29.66,9.01-17.86,3.51-5.05c1.18-1.69,3.11-2.71,5.17-2.71h5.82c3.93,0,7.78-1.37,10.83-3.86l8.56-7.01c2.4-1.96,5.11-3.42,8.07-4.33l11.25-3.46c2.69-.83,5.47-1.46,8.25-1.89l8.17-1.26c.63-.1,1.27-.15,1.91-.15,3.85,0,7.44,1.73,9.83,4.76l.61.77c1.22,1.55,2.03,3.39,2.34,5.34l.35,2.23c.69,4.44,3.74,8.17,7.94,9.75l1.06.4c1.58.59,3.24.89,4.93.89s3.2-.27,4.72-.82l10.12-3.61c1.74-.62,3.55-.93,5.39-.93,2.48,0,4.96.59,7.17,1.69l9.78,4.89c1.56.78,3.3,1.19,5.05,1.19h9.35c1.31,0,2.62-.31,3.78-.89l13.53-6.76c1.16-.58,2.46-.89,3.75-.89.82,0,1.63.12,2.41.35l4.61,1.38c4.42,1.33,7.94,4.73,9.4,9.12l.79,2.38c.94,2.81,2.39,5.38,4.32,7.63l6.39,7.46,11.39,6.83c2.58,1.55,4.8,3.57,6.59,6l8.57,11.62,6.04,4.9c4.06,3.3,9.18,5.11,14.41,5.11.8,0,1.6-.04,2.39-.13l13.17-1.39c.14-.01.28-.02.42-.02,1.23,0,2.36.58,3.09,1.59.73,1.01.92,2.26.52,3.44l-.64,1.92c-1.19,3.58-2.98,6.9-5.31,9.86l-13.27,16.89-23.67,22.9-10.72,7.42c-2.41,1.67-4.52,3.71-6.29,6.05l-4.63,6.17c-2.43,3.24-3.77,7.26-3.77,11.32l-1.53,13.78,3.07,24.54,2.3,29.95c.49,6.34-.5,12.82-2.86,18.73l-2.47,6.17-4.62,21.51-4.38,22.25c-.15.76-.23,1.53-.23,2.31v15.55c0,2.69-1.05,5.22-2.95,7.12l-3.58,3.58c-1.37,1.37-3.2,2.13-5.14,2.13Z"/>
        <path class="cls-1" d="M107.88,1c3.7,0,7.14,1.66,9.44,4.57l.61.77c1.17,1.48,1.94,3.25,2.23,5.11l.35,2.23c.72,4.61,3.89,8.5,8.26,10.14l1.06.4c1.64.61,3.35.92,5.1.92s3.31-.28,4.89-.85l10.12-3.61c1.68-.6,3.44-.9,5.22-.9,2.4,0,4.8.57,6.95,1.64l9.78,4.89c1.63.81,3.45,1.24,5.27,1.24h9.35c1.38,0,2.77-.33,4.01-.95l13.53-6.76c1.09-.54,2.31-.83,3.53-.83.77,0,1.53.11,2.27.33l4.61,1.38c4.27,1.28,7.66,4.57,9.07,8.8l.79,2.38c.96,2.87,2.44,5.5,4.41,7.8l6.34,7.39.11.12.14.08,11.32,6.79c2.53,1.52,4.7,3.49,6.45,5.86l8.53,11.56.08.1.1.08,5.99,4.86c4.15,3.37,9.38,5.22,14.72,5.22.81,0,1.64-.04,2.45-.13l13.17-1.39c.12-.01.24-.02.36-.02,1.07,0,2.05.51,2.68,1.39.63.88.8,1.97.45,2.99l-.64,1.92c-1.17,3.52-2.93,6.79-5.23,9.71l-13.23,16.83-23.61,22.85-10.71,7.43c-2.45,1.7-4.61,3.78-6.4,6.17l-4.63,6.17c-2.49,3.31-3.86,7.42-3.87,11.56l-1.52,13.72v.12s0,.12,0,.12l3.06,24.44,2.31,29.98c.48,6.27-.5,12.67-2.83,18.5l-2.47,6.17-.03.08-.02.08-4.59,21.44-4.38,22.24c-.16.79-.23,1.6-.23,2.4v15.55c0,2.56-1,4.96-2.8,6.77l-3.58,3.58c-1.28,1.28-2.98,1.98-4.79,1.98-1.09,0-2.17-.27-3.14-.77l-25.48-13.35c-1.08-.56-2.18-1.1-3.29-1.61l-15.24-6.92-17.39-6.96c-3.21-1.29-5.65-4.05-6.51-7.41-2.62-10.16-3.01-13-3.01-13.78,0-3.34-7.74-9.21-9.51-10.5l-7.52-8.19c-1.74-1.9-2.48-4.54-1.98-7.07l3.67-18.36,1.29-3.86c3.15-9.45,2.06-19.8-2.99-28.39l-5.74-9.77c-1.27-2.16-2.84-4.12-4.67-5.83l-28.91-27.03c-4-3.74-9.21-5.8-14.69-5.8-.64,0-1.28.03-1.91.09l-12.71,1.14c-1.04.09-2.1.14-3.15.14-5.47,0-10.95-1.29-15.85-3.74l-17.21-8.6c-2.7-1.35-5.27-2.97-7.65-4.83-1.32-1.03-2.08-2.58-2.08-4.25v-17.85c0-1.78-.22-3.55-.65-5.27l-3.33-13.33c-.77-3.1-.96-6.27-.54-9.44l.78-5.92c.42-3.22,1.67-6.31,3.62-8.91l22.12-29.66.05-.07.04-.08,8.93-17.73,3.51-5.05c1.08-1.56,2.86-2.49,4.76-2.49h5.82c4.05,0,8.01-1.41,11.14-3.98l8.56-7c2.35-1.92,5-3.34,7.9-4.24l11.25-3.46c2.67-.82,5.42-1.45,8.18-1.88l8.17-1.26c.6-.09,1.22-.14,1.83-.14M107.88,0c-.66,0-1.32.05-1.98.15l-8.17,1.26c-2.82.43-5.6,1.07-8.32,1.91l-11.25,3.46c-3.01.93-5.81,2.43-8.24,4.42l-8.56,7c-2.96,2.43-6.68,3.75-10.51,3.75h-5.82c-2.23,0-4.31,1.09-5.58,2.92l-3.55,5.11-8.97,17.79-22.12,29.66c-2.05,2.75-3.36,5.98-3.81,9.38l-.78,5.92c-.43,3.28-.24,6.6.56,9.81l3.33,13.33c.41,1.64.62,3.33.62,5.03v17.85c0,1.97.91,3.83,2.46,5.04,2.43,1.9,5.05,3.56,7.82,4.94l17.21,8.6c5.07,2.54,10.65,3.85,16.29,3.85,1.08,0,2.16-.05,3.24-.14l12.71-1.14c.61-.05,1.22-.08,1.82-.08,5.18,0,10.19,1.96,14,5.53l28.91,27.03c1.76,1.64,3.27,3.53,4.49,5.6l5.74,9.77c4.9,8.34,5.96,18.39,2.9,27.57l-1.31,3.92-3.68,18.42c-.57,2.85.26,5.8,2.22,7.94l7.58,8.26s9.18,6.7,9.18,9.76c0,1.87,1.71,8.86,3.04,14.03.95,3.68,3.59,6.68,7.11,8.08l17.39,6.96,15.19,6.91c1.09.5,2.17,1.02,3.24,1.58l25.48,13.35c1.14.6,2.37.89,3.6.89,2.01,0,4-.78,5.49-2.27l3.58-3.58c1.98-1.98,3.1-4.67,3.1-7.48v-15.55c0-.74.07-1.48.22-2.21l4.38-22.24,4.59-21.42,2.47-6.17c2.4-6.01,3.4-12.49,2.9-18.95l-2.31-29.98-3.06-24.48,1.53-13.77c0-3.97,1.29-7.84,3.67-11.02l4.63-6.17c1.72-2.3,3.81-4.31,6.17-5.94l10.78-7.47,23.72-22.95,13.27-16.89c2.36-3,4.18-6.39,5.39-10.01l.64-1.92c.94-2.83-1.19-5.69-4.09-5.7-.15,0-.31,0-.47.02l-13.17,1.39c-.78.08-1.56.12-2.34.12-5.11,0-10.09-1.75-14.09-5l-5.99-4.86-8.53-11.56c-1.82-2.47-4.11-4.55-6.74-6.13l-11.32-6.79-6.34-7.39c-1.88-2.19-3.31-4.73-4.23-7.46l-.79-2.38c-1.51-4.54-5.14-8.06-9.73-9.44l-4.61-1.38c-.84-.25-1.7-.37-2.55-.37-1.37,0-2.73.32-3.98.94l-13.53,6.76c-1.11.55-2.32.84-3.56.84h-9.35c-1.67,0-3.33-.39-4.82-1.14l-9.78-4.89c-2.32-1.16-4.85-1.75-7.39-1.75-1.88,0-3.76.32-5.56.96l-10.12,3.61c-1.47.53-3.01.79-4.55.79s-3.22-.29-4.75-.86l-1.06-.4c-4.04-1.52-6.96-5.09-7.62-9.36l-.35-2.23c-.32-2.04-1.16-3.96-2.44-5.58l-.61-.77c-2.49-3.15-6.28-4.95-10.22-4.95h0Z"/>
      </g>
      <g>
        <path class="cls-2" d="M256.5,270.78c-2.69,0-4.89-2.2-4.89-4.9v-2.45c0-.76.11-1.52.34-2.24l5.8-18.85-1.64-8.18c-.86-4.29.71-8.67,4.1-11.44l4.02-3.29c1-.82,2.21-1.25,3.48-1.25,2.51,0,4.65,1.61,5.34,4.02l2.64,9.23c.6,2.11.57,4.34-.1,6.44l-7.21,22.67c-1.48,4.64-5.12,8.3-9.75,9.8l-.61.2c-.5.16-1.01.24-1.52.24h0Z"/>
        <path class="cls-1" d="M267.71,218.68c2.28,0,4.23,1.47,4.86,3.65l2.64,9.23c.58,2.02.55,4.15-.09,6.15l-7.21,22.67c-1.43,4.48-4.95,8.03-9.42,9.48l-.61.2c-.45.15-.91.22-1.37.22-2.42,0-4.39-1.97-4.39-4.4v-2.45c0-.71.11-1.41.31-2.09l5.76-18.73.07-.24-.05-.25-1.61-8.06c-.82-4.11.68-8.3,3.92-10.95l4.02-3.29c.91-.75,2.01-1.14,3.17-1.14M267.71,217.68c-1.32,0-2.66.43-3.8,1.37l-4.02,3.29c-3.52,2.88-5.16,7.47-4.27,11.92l1.61,8.06-5.76,18.73c-.24.77-.36,1.58-.36,2.39v2.45c0,3.08,2.52,5.4,5.39,5.4.55,0,1.11-.09,1.68-.27l.61-.2c4.79-1.56,8.54-5.33,10.07-10.13l7.21-22.67c.69-2.18.73-4.52.1-6.73l-2.64-9.23c-.79-2.75-3.26-4.38-5.82-4.38h0Z"/>
      </g>
    </g>
  </g>
</svg>