<?xml version="1.0" encoding="UTF-8"?>
<svg id="Ebene_2" data-name="Ebene 2" xmlns="http://www.w3.org/2000/svg" xmlns:xlink="http://www.w3.org/1999/xlink" viewBox="0 0 375.61 649.56">
  <defs>
    <style>
      .cls-1 {
        fill: #000;
      }

      .cls-1, .cls-2, .cls-3, .cls-4, .cls-5, .cls-6 {
        stroke-width: 0px;
      }

      .cls-2 {
        fill: url(#Unbenannter_Verlauf_8);
      }

      .cls-7 {
        fill: url(#Unbenannter_Verlauf_18-2);
      }

      .cls-7, .cls-8, .cls-9 {
        stroke: #000;
        stroke-miterlimit: 10;
      }

      .cls-3 {
        fill: url(#Unbenannter_Verlauf_20-2);
      }

      .cls-4 {
        fill: url(#Unbenannter_Verlauf_13);
      }

      .cls-5 {
        fill: url(#Unbenannter_Verlauf_20);
      }

      .cls-6 {
        fill: url(#Unbenannter_Verlauf_14);
      }

      .cls-8 {
        fill: url(#Unbenannter_Verlauf_18);
      }

      .cls-9 {
        fill: url(#Unbenannter_Verlauf_15);
      }
    </style>
    <linearGradient id="Unbenannter_Verlauf_20" data-name="Unbenannter Verlauf 20" x1=".51" y1="324.78" x2="370.66" y2="324.78" gradientUnits="userSpaceOnUse">
      <stop offset="0" stop-color="#520200"/>
      <stop offset=".67" stop-color="#b61100"/>
    </linearGradient>
    <linearGradient id="Unbenannter_Verlauf_18" data-name="Unbenannter Verlauf 18" x1="289.14" y1="114.56" x2="309.49" y2="114.56" gradientUnits="userSpaceOnUse">
      <stop offset="0" stop-color="#520200"/>
      <stop offset=".03" stop-color="#6d0600"/>
      <stop offset=".06" stop-color="#870a00"/>
      <stop offset=".1" stop-color="#9c0d00"/>
      <stop offset=".14" stop-color="#aa0f00"/>
      <stop offset=".18" stop-color="#b31000"/>
      <stop offset=".26" stop-color="#b61100"/>
    </linearGradient>
    <linearGradient id="Unbenannter_Verlauf_18-2" data-name="Unbenannter Verlauf 18" x1="320.07" y1="98.61" x2="332.31" y2="98.61" xlink:href="#Unbenannter_Verlauf_18"/>
    <linearGradient id="Unbenannter_Verlauf_20-2" data-name="Unbenannter Verlauf 20" x1="79.85" y1="319.22" x2="126.98" y2="319.22" xlink:href="#Unbenannter_Verlauf_20"/>
    <linearGradient id="Unbenannter_Verlauf_8" data-name="Unbenannter Verlauf 8" x1="131.34" y1="297.96" x2="155.2" y2="297.96" gradientUnits="userSpaceOnUse">
      <stop offset="0" stop-color="#520200"/>
      <stop offset=".01" stop-color="#600400"/>
      <stop offset=".05" stop-color="#7a0800"/>
      <stop offset=".09" stop-color="#900b00"/>
      <stop offset=".13" stop-color="#a10d00"/>
      <stop offset=".19" stop-color="#ad0f00"/>
      <stop offset=".26" stop-color="#b41000"/>
      <stop offset=".48" stop-color="#b61100"/>
    </linearGradient>
    <linearGradient id="Unbenannter_Verlauf_13" data-name="Unbenannter Verlauf 13" x1="136.63" y1="337.86" x2="148.12" y2="337.86" gradientUnits="userSpaceOnUse">
      <stop offset="0" stop-color="#520200"/>
      <stop offset="0" stop-color="#560200"/>
      <stop offset=".05" stop-color="#730700"/>
      <stop offset=".1" stop-color="#8c0a00"/>
      <stop offset=".16" stop-color="#9e0d00"/>
      <stop offset=".23" stop-color="#ac0f00"/>
      <stop offset=".32" stop-color="#b31000"/>
      <stop offset=".49" stop-color="#b61100"/>
    </linearGradient>
    <linearGradient id="Unbenannter_Verlauf_14" data-name="Unbenannter Verlauf 14" x1="177.42" y1="382.68" x2="200.6" y2="382.68" gradientUnits="userSpaceOnUse">
      <stop offset="0" stop-color="#520200"/>
      <stop offset=".02" stop-color="#600400"/>
      <stop offset=".07" stop-color="#7a0800"/>
      <stop offset=".12" stop-color="#900b00"/>
      <stop offset=".18" stop-color="#a10d00"/>
      <stop offset=".26" stop-color="#ad0f00"/>
      <stop offset=".37" stop-color="#b41000"/>
      <stop offset=".67" stop-color="#b61100"/>
    </linearGradient>
    <linearGradient id="Unbenannter_Verlauf_15" data-name="Unbenannter Verlauf 15" x1="361.38" y1="84.77" x2="375.11" y2="84.77" gradientUnits="userSpaceOnUse">
      <stop offset="0" stop-color="#520200"/>
      <stop offset="0" stop-color="#600400"/>
      <stop offset=".03" stop-color="#7a0800"/>
      <stop offset=".05" stop-color="#900b00"/>
      <stop offset=".07" stop-color="#a10d00"/>
      <stop offset=".1" stop-color="#ad0f00"/>
      <stop offset=".14" stop-color="#b41000"/>
      <stop offset=".25" stop-color="#b61100"/>
    </linearGradient>
  </defs>
  <g id="earth">
    <g>
      <g>
        <path class="cls-5" d="M293.84,649.06c-.07,0-.15,0-.22-.02l-14.31-2.86-18.11-5.03c-6.21-1.72-12.2-4.22-17.8-7.42l-12.95-7.39-40.16-20.81c-.78-.41-1.55-.87-2.27-1.37l-.63-.44c-8.95-6.26-16.56-14.04-22.63-23.13l-.09-.13-.79-.3c-7.66-2.87-14.81-6.87-21.27-11.89-2.54-1.98-4.54-4.59-5.78-7.57l-3.03-7.26c-1.8-4.31-4.1-8.41-6.85-12.19l-8.15-11.19-7.23-8.26c-1.68-1.92-2.97-4.08-3.91-5.76-1.85-3.31-9.85-10.21-42.56-19.27-4.67-1.3-8.33-5-9.55-9.66l-7.12-27.27c-2.95-7.88-9.6-13.53-17.8-15.17-1.33-.27-2.39-1.28-2.72-2.59l-2.43-9.72v-6.8c0-6.29,2.45-12.21,6.9-16.66l6.44-6.43c2.26-2.26,3.5-5.26,3.5-8.45,0-2.92-1.59-5.6-4.16-7l-9.92-5.41c-1.96-1.07-3.67-2.47-5.1-4.18l-1.3-1.56c-2.6-3.12-4.03-7.07-4.03-11.13v-10.36c0-5.05-1.78-9.97-5.02-13.85l-2.76-3.31-5.78-8.68c-.2-.3-.39-.61-.58-.92l-3.17-5.41c.34-4.02,7.63-82.92,54.9-160.83,28.34-46.71,65.3-83.93,109.86-110.61C220.96,17.42,288.76.5,366.78.5c1.3,0,2.58,0,3.88.01l-12.36,23.58c-1.99,3.79-2.71,8.03-2.11,12.26.4,2.78.04,5.61-1.04,8.2l-3.91,9.34c-1.3,3.11-3.49,5.69-6.35,7.48l-24.21,15.15c-5.19,3.25-8.29,8.84-8.29,14.96,0,.51-.25.98-.67,1.27l-51.66,35.53c-.41.28-.89.43-1.39.43-.18,0-.36-.02-.53-.06-2.49-.55-4.46-2.33-5.27-4.75-.81-2.42-.3-5.02,1.37-6.96l3.81-4.45c4.15-4.84,7.53-10.27,10.05-16.13l2.59-6.05c1.82-4.24,4.81-7.83,8.64-10.38l12.51-8.33,1.24-2.8c1.16-2.61.92-5.59-.63-7.99-1.56-2.39-4.19-3.82-7.04-3.82h-29.03c-4.07,0-7.73,2.26-9.55,5.9l-6.38,12.74-9.14,21.3-19.86,12.21-2.67,3.55c-.25.33-.63.53-1.04.53-.56,0-1.04-.33-1.23-.85l-1.31-3.49c-1.39-3.7-2.09-7.58-2.09-11.53v-4.59l-.14-.15c-6.37-6.52-15.26-10.26-24.38-10.26-1.87,0-3.75.16-5.6.46-.83.14-1.58.61-2.06,1.3l-10.09,14.4-2.33,3.27c-3.49,4.88-7.87,8.92-13.02,12.01l-17.44,10.46c-3.45,2.07-5.59,5.84-5.59,9.86,0,1.8-.16,3.62-.46,5.4l-.68,3.98c-1.08,6.25,2.51,12.25,8.53,14.25.74.25,1.51.37,2.29.37,1.74,0,3.43-.63,4.74-1.77,2.73-2.37,6.65-5.8,8.43-7.35.68-.6,1.22-1.32,1.6-2.15l7.11-15.62.62-.73c3.47-4.04,8.51-6.36,13.83-6.36,2.06,0,4.08.35,6.02,1.03l-1.11,9.97c-.26,2.33.37,4.64,1.78,6.51l.22.29c1.1,1.47,2.86,2.34,4.69,2.34.63,0,1.25-.1,1.85-.3l7.91-2.63c1.06-.35,2.17-.53,3.28-.53.34,0,.69.02,1.03.05l5.05.5c4.37.44,7.83,3.93,8.23,8.3l.81,8.87-1.52,15.14-6.08,15.18-10.74,15.33-3.1,12.39v.06c0,1.46-1.14,2.68-2.59,2.8l-17.03,1.31-11.58,10.42c-2.52,2.27-5.36,4.15-8.44,5.58l-13.71,6.39c-3.04,1.42-5.51,3.87-6.95,6.91l-11.71,24.7,2.61,9.13c.29,1.02.19,2.1-.28,3.04l-.57,1.15c-.94,1.88-2.84,3.06-4.95,3.06-1.72,0-3.26-1.03-3.92-2.61l-1.94-4.64c-.41-.97-.53-2.04-.35-3.08l.63-3.79c.42-2.5.04-5.02-1.1-7.28-.95-1.9-2.86-3.09-4.98-3.1l-5.36-.04c-3.48,0-6.64,1.69-8.54,4.53l-.08.12c-1.37,2.06-3.66,3.29-6.12,3.29-.72,0-1.44-.11-2.14-.32-4.36-1.33-9.71-2.94-9.71-2.94l-.15-.05-8.48,2.83c-3.64,1.21-7.22,2.7-10.65,4.41l-3.36,1.68c-2.53,1.26-4.7,3.18-6.27,5.53l-6.79,10.17-7.29,3.64c-3.24,1.62-5.66,4.41-6.81,7.85l-1.35,4.04-1.55,7.71-1.26,7.53c-.2,1.19.56,2.36,1.74,2.65.64.16,1.31.24,1.97.24,2.32,0,4.53-.99,6.08-2.73l7.38-8.3c1.05-1.18,2.56-1.86,4.14-1.86,1.85,0,3.48,1.25,3.95,3.04.41,1.55.49,2.26.49,2.58-.06.44-1.78,2.31-7.84,6.53-.74.51-1.4,1.14-1.95,1.87l-.91,1.19c-1.93,2.52-2.12,5.91-.49,8.63l.51.85c1.08,1.8,2.79,3.07,4.83,3.58l6.17,1.54c1.85.46,3.39,1.7,4.25,3.41.89,1.79.65,3.93-.63,5.46l-5.38,6.46-.03.05c-.32.64-3.12,6.27-3.12,7.88,0,.41,0,1.18,7.15,7.92,4.34,4.09,10.04,6.35,16.03,6.35h7.36l31.44-10.76,1.52-1.01c2.21-1.47,4.79-2.25,7.45-2.25s5.23.78,7.45,2.25l1.42.95c2.39,2.44,5.72,3.83,9.13,3.83.7,0,1.41-.06,2.1-.17l.14-.02c.4-.07.8-.1,1.2-.1,1.31,0,2.6.37,3.71,1.06l1.55.96c2.2,1.37,4.73,2.09,7.32,2.09,3.33,0,6.55-1.2,9.07-3.37.64-.55,1.45-.85,2.29-.85,1.08,0,2.09.49,2.75,1.35l8.21,10.54,18.18,9.78c1.1.59,1.98,1.5,2.54,2.61,1.44,2.87,3.89,5.05,6.9,6.15l9.3,3.38c.62.22,1.09.71,1.31,1.32s.15,1.29-.19,1.85l-3.09,5.14,3.51,4.92c2.84,3.97,7.26,6.47,12.13,6.84l7.54.58c2.82.22,5.37,1.79,6.82,4.22,2.64,4.41,6.74,10.37,11.3,13.69,2.89,2.1,4.46,5.42,4.19,8.87l-.99,12.86,1.07,14.99c.3,4.17-.47,8.38-2.23,12.18l-5.86,12.68c-.38.82-.86,1.58-1.44,2.28l-4.29,5.15c-1.66,1.99-2.74,4.41-3.11,6.98l-.97,6.78-5.22,6.25c-1.59,1.9-2.28,4.4-1.9,6.84l2.5,16.27,1.52,15.22-.65,5.85c-.58,5.21.91,10.33,4.18,14.42.61.76,1.52,1.2,2.5,1.2.34,0,.68-.06,1.01-.16l2.92-.97,3.15-3.14c1.13-1.13,2.64-1.76,4.24-1.76s3.06.6,4.18,1.7l1.55,3.09c3.01,6.02,5.54,12.33,7.52,18.76,2.05,6.65,6.56,12.09,12.71,15.33,5.39,2.84,11.88,6.26,15.91,8.38,2.58,1.36,5.34,2.37,8.2,3l4.64,1.03c.91.2,1.65.85,1.98,1.73.32.88.18,1.85-.38,2.59l-.97,1.29c-.21.28-.54.45-.9.45Z"/>
        <path class="cls-1" d="M366.81,0v1c1.02,0,2.02,0,3.03,0l-11.98,22.85c-2.03,3.88-2.78,8.22-2.16,12.56.38,2.69.04,5.44-1.01,7.94l-3.91,9.34c-1.26,3.01-3.39,5.52-6.16,7.25l-24.21,15.15c-5.33,3.34-8.52,9.09-8.52,15.38,0,.34-.17.66-.45.86l-51.66,35.53c-.33.23-.71.34-1.11.34-.14,0-.28-.02-.42-.05-2.32-.51-4.15-2.17-4.9-4.42-.75-2.25-.28-4.67,1.27-6.48l3.81-4.45c4.19-4.88,7.59-10.35,10.13-16.26l2.59-6.05c1.78-4.15,4.7-7.66,8.46-10.16l12.39-8.25.24-.16.12-.26,1.19-2.67c1.23-2.76.98-5.93-.67-8.46-1.65-2.54-4.44-4.05-7.46-4.05h-29.03c-4.26,0-8.09,2.37-9.99,6.17l-6.38,12.74v.03s-.02.03-.02.03l-9.06,21.13-19.64,12.08-.16.1-.11.15-2.61,3.48c-.21.28-.5.33-.65.33-.27,0-.62-.14-.77-.53l-1.31-3.49c-1.37-3.64-2.06-7.46-2.06-11.35v-4.79l-.28-.29c-6.47-6.61-15.48-10.41-24.73-10.41-1.9,0-3.81.16-5.68.47-.96.16-1.83.71-2.38,1.5l-10.08,14.39-2.34,3.27c-3.45,4.83-7.78,8.82-12.87,11.87l-17.44,10.46c-3.6,2.16-5.83,6.1-5.83,10.29,0,1.78-.15,3.56-.45,5.31l-.68,3.98c-1.12,6.5,2.61,12.73,8.87,14.81.79.26,1.62.4,2.45.4,1.86,0,3.66-.67,5.07-1.9,2.73-2.37,6.65-5.8,8.43-7.36.74-.64,1.32-1.42,1.72-2.32l7.08-15.56.58-.67c3.37-3.93,8.27-6.18,13.45-6.18,1.87,0,3.71.29,5.48.87l-1.06,9.57c-.27,2.45.39,4.89,1.87,6.86l.22.29c1.2,1.59,3.1,2.54,5.09,2.54.68,0,1.36-.11,2.01-.33l7.91-2.63c1.01-.34,2.06-.51,3.12-.51.33,0,.66.02.98.05l5.05.5c4.13.41,7.41,3.71,7.78,7.85l.8,8.78-1.51,15.07-6.03,15.06-10.65,15.21-.11.15-.04.18-3.06,12.24-.03.12v.12c0,1.2-.93,2.21-2.13,2.3l-16.86,1.3-.34.03-.25.23-11.46,10.3c-2.49,2.24-5.29,4.09-8.32,5.5l-13.71,6.39c-3.15,1.47-5.7,4.01-7.19,7.15l-11.63,24.53-.16.34.1.36,2.56,8.95c.26.9.17,1.85-.25,2.68l-.57,1.15c-.86,1.71-2.58,2.78-4.5,2.78-1.52,0-2.88-.91-3.46-2.31l-1.93-4.64c-.37-.89-.48-1.85-.32-2.8l.63-3.79c.43-2.6.04-5.23-1.14-7.59-1.03-2.07-3.11-3.36-5.42-3.38l-5.36-.04h-.08c-3.57,0-6.89,1.77-8.88,4.75l-.08.12c-1.28,1.92-3.41,3.07-5.7,3.07-.67,0-1.34-.1-1.99-.3-4.36-1.34-9.72-2.94-9.72-2.94l-.3-.09-.3.1-8.33,2.78c-3.66,1.22-7.27,2.71-10.72,4.44l-3.36,1.68c-2.61,1.3-4.85,3.28-6.46,5.7l-6.71,10.06-7.17,3.58c-3.36,1.68-5.87,4.57-7.06,8.14l-1.35,4.04-.02.06v.06s-1.55,7.68-1.55,7.68l-1.25,7.51c-.24,1.45.69,2.86,2.11,3.22.68.17,1.39.26,2.09.26,2.46,0,4.81-1.06,6.45-2.89l7.38-8.3c.96-1.07,2.33-1.69,3.77-1.69,1.63,0,3.05,1.1,3.47,2.67.37,1.4.46,2.06.48,2.36-.35.69-2.84,2.88-7.62,6.21-.78.54-1.48,1.21-2.07,1.98l-.91,1.19c-2.06,2.68-2.26,6.29-.52,9.19l.51.85c1.15,1.91,2.97,3.26,5.14,3.81l6.17,1.54c1.7.43,3.13,1.57,3.92,3.14.8,1.61.58,3.54-.57,4.92l-5.35,6.41-.07.09-.05.1c-.74,1.49-3.17,6.46-3.17,8.1,0,.59,0,1.4,7.31,8.29,4.44,4.18,10.25,6.49,16.38,6.49h7.44l.16-.05,31.3-10.71.12-.04.11-.07,1.47-.98c2.13-1.42,4.61-2.17,7.17-2.17s5.04.75,7.17,2.17l1.38.92c2.48,2.51,5.92,3.94,9.45,3.94.73,0,1.46-.06,2.18-.18l.14-.02c.37-.06.74-.09,1.11-.09,1.22,0,2.41.34,3.45.98l1.55.96c2.28,1.42,4.9,2.17,7.59,2.17,3.45,0,6.79-1.24,9.4-3.5.55-.47,1.24-.73,1.96-.73.93,0,1.79.42,2.36,1.15l8.14,10.46.13.17.19.1,18.09,9.73c1.01.54,1.81,1.37,2.33,2.4,1.49,2.98,4.04,5.26,7.18,6.4l9.3,3.38c.47.17.84.54,1.01,1.02.17.48.12,1-.14,1.43l-2.92,4.86-.34.56.38.53,3.32,4.65c2.93,4.09,7.48,6.66,12.5,7.05l7.54.58c2.66.2,5.06,1.69,6.43,3.97,2.66,4.45,6.81,10.46,11.44,13.83,2.75,2,4.24,5.15,3.98,8.43l-.99,12.86v.07s0,.07,0,.07l1.07,14.92c.29,4.09-.46,8.22-2.18,11.94l-5.86,12.68c-.36.78-.82,1.51-1.37,2.17l-4.29,5.15c-1.72,2.07-2.84,4.57-3.22,7.23l-.95,6.64-5.13,6.15c-1.68,2.01-2.41,4.65-2.01,7.24l2.5,16.24,1.52,15.17-.64,5.8c-.59,5.34.93,10.59,4.29,14.79.71.88,1.76,1.39,2.89,1.39.4,0,.79-.06,1.17-.19l2.81-.93.22-.07.17-.17,3.06-3.06c1.04-1.04,2.42-1.61,3.89-1.61s2.75.53,3.78,1.5l1.51,3.02c3,5.99,5.52,12.28,7.49,18.69,2.09,6.77,6.69,12.32,12.96,15.63,5.39,2.84,11.88,6.26,15.91,8.38,2.62,1.38,5.42,2.41,8.32,3.05l4.64,1.03c.76.17,1.35.68,1.62,1.41.27.73.16,1.5-.31,2.12l-.97,1.29c-.12.16-.3.25-.5.25-.04,0-.08,0-.12-.01l-14.28-2.85-18.11-5.03c-6.17-1.71-12.12-4.19-17.69-7.37l-12.98-7.41-40.14-20.8c-.76-.4-1.51-.85-2.21-1.34l-.63-.44c-8.9-6.23-16.47-13.96-22.5-23l-.18-.27-.3-.11-.64-.24c-7.61-2.85-14.72-6.83-21.14-11.81-2.48-1.92-4.42-4.47-5.63-7.36l-3.03-7.26c-1.81-4.35-4.14-8.48-6.91-12.29l-8.15-11.19-.03-.04-.03-.03-7.21-8.23c-1.65-1.89-2.92-4.02-3.85-5.67-1.89-3.37-9.97-10.39-42.86-19.51-4.5-1.25-8.03-4.81-9.2-9.3l-7.12-27.27v-.05s-.03-.05-.03-.05c-3-7.99-9.79-13.76-18.16-15.43-1.14-.23-2.05-1.1-2.34-2.23l-2.42-9.66v-6.74c0-6.16,2.4-11.95,6.76-16.31l2.14-2.14,4.3-4.3c2.35-2.35,3.65-5.48,3.65-8.8,0-3.1-1.69-5.96-4.42-7.44l-9.92-5.41c-1.9-1.04-3.57-2.4-4.95-4.07l-1.3-1.56c-2.53-3.03-3.92-6.87-3.92-10.81v-10.36c0-5.17-1.82-10.2-5.13-14.17l-2.72-3.26-5.79-8.67c-.19-.29-.38-.59-.56-.89l-3.09-5.27c.23-2.65,2.09-22.14,9.11-49.96,6.95-27.5,20.52-69,45.72-110.52,28.3-46.63,65.21-83.78,109.69-110.42C221.16,17.9,288.86,1.01,366.78,1l.03-1M366.78,0C24.3.03,0,322.34,0,322.34l3.25,5.55c.19.32.38.63.59.94l5.82,8.72,2.76,3.31c3.17,3.8,4.9,8.58,4.9,13.53v10.36c0,4.18,1.47,8.24,4.15,11.45l1.3,1.56c1.46,1.75,3.24,3.21,5.24,4.3l9.92,5.41c2.4,1.31,3.9,3.83,3.9,6.56,0,3.04-1.21,5.95-3.36,8.1l-4.3,4.3-2.14,2.14c-4.51,4.51-7.05,10.63-7.05,17.01v6.86l2.45,9.78c.38,1.51,1.59,2.66,3.11,2.96,7.97,1.59,14.56,7.19,17.42,14.8,0,0,4.41,16.89,7.12,27.27,1.27,4.87,5.05,8.67,9.9,10.01,32.84,9.1,40.52,15.94,42.25,19.04,1.16,2.06,2.41,4.06,3.97,5.84l7.21,8.23,8.15,11.19c2.73,3.75,5.01,7.8,6.79,12.08l3.03,7.26c1.28,3.06,3.32,5.73,5.94,7.77,6.49,5.04,13.71,9.08,21.41,11.96l.64.24c6.07,9.1,13.79,16.99,22.76,23.26l.63.44c.74.52,1.52.99,2.32,1.41l40.14,20.8,12.95,7.39c5.64,3.22,11.66,5.73,17.92,7.46l18.14,5.04,14.31,2.86c.11.02.21.03.32.03.5,0,.99-.24,1.3-.65l.97-1.29c1.41-1.88.41-4.6-1.89-5.11l-4.64-1.03c-2.81-.62-5.52-1.62-8.07-2.96-4.03-2.12-10.52-5.53-15.91-8.38-5.99-3.16-10.48-8.57-12.47-15.04h0c-1.99-6.48-4.52-12.78-7.55-18.84l-1.58-3.17h0c-1.27-1.27-2.93-1.9-4.59-1.9s-3.33.63-4.59,1.9l-3.06,3.06-2.81.93c-.28.09-.57.14-.85.14-.81,0-1.59-.36-2.11-1.01h0c-3.17-3.96-4.63-9.01-4.07-14.05l.66-5.9-1.53-15.3-2.5-16.27c-.36-2.31.3-4.65,1.79-6.45l5.31-6.36.99-6.92c.35-2.48,1.39-4.81,2.99-6.73l4.29-5.15c.61-.73,1.11-1.53,1.51-2.39l5.86-12.68c1.79-3.88,2.58-8.16,2.27-12.43l-1.07-14.92.99-12.86c.28-3.66-1.42-7.15-4.39-9.32-4.59-3.34-8.73-9.46-11.17-13.54-1.54-2.57-4.22-4.23-7.21-4.46l-7.54-.58c-4.71-.36-9.02-2.79-11.77-6.63l-3.32-4.65,2.92-4.86c.87-1.45.2-3.33-1.38-3.9l-9.3-3.38c-2.88-1.05-5.25-3.16-6.63-5.9-.6-1.2-1.56-2.19-2.75-2.83l-18.09-9.73s-4.97-6.38-8.14-10.46c-.79-1.01-1.96-1.54-3.15-1.54-.92,0-1.86.32-2.61.98h0c-2.49,2.15-5.61,3.25-8.74,3.25-2.44,0-4.89-.66-7.06-2.02-.55-.34-1.07-.67-1.55-.96-1.2-.75-2.57-1.13-3.97-1.13-.42,0-.85.04-1.28.11l-.14.02c-.67.11-1.35.17-2.02.17-3.29,0-6.48-1.32-8.81-3.72l-1.47-.98c-2.34-1.56-5.03-2.34-7.72-2.34s-5.38.78-7.72,2.34l-1.47.98-31.3,10.71h-7.27c-5.83,0-11.45-2.21-15.69-6.21-3.48-3.28-7-6.79-7-7.56,0-1.53,3.06-7.65,3.06-7.65,0,0,3.09-3.71,5.35-6.41,1.41-1.69,1.68-4.04.69-6-.92-1.83-2.59-3.17-4.57-3.67l-6.17-1.54c-1.89-.47-3.52-1.68-4.52-3.35l-.51-.85c-1.52-2.53-1.34-5.73.46-8.07l.91-1.19c.52-.68,1.14-1.27,1.84-1.76,2.39-1.66,8.06-5.73,8.06-6.94,0-.59-.23-1.64-.51-2.71-.53-2.01-2.35-3.41-4.44-3.41-1.72,0-3.37.74-4.51,2.03l-7.38,8.3c-1.47,1.65-3.55,2.56-5.7,2.56-.62,0-1.24-.07-1.85-.23-.93-.23-1.52-1.14-1.37-2.08l1.25-7.51,1.53-7.65,1.35-4.04c1.1-3.29,3.46-6.01,6.56-7.56l7.41-3.7,6.86-10.28c1.53-2.29,3.62-4.13,6.08-5.36l3.36-1.68c3.42-1.71,6.96-3.17,10.59-4.38l8.33-2.78s5.35,1.6,9.71,2.94c.76.23,1.52.34,2.29.34,2.57,0,5.04-1.27,6.53-3.51l.08-.12c1.8-2.69,4.81-4.3,8.05-4.3.02,0,.05,0,.07,0l5.36.04c1.92.01,3.68,1.11,4.54,2.82,1.08,2.16,1.45,4.6,1.05,6.98l-.63,3.79c-.19,1.13-.05,2.29.39,3.35l1.93,4.64c.74,1.77,2.47,2.92,4.38,2.92,2.28,0,4.37-1.29,5.39-3.33l.57-1.15c.53-1.06.64-2.27.32-3.41l-2.56-8.95,11.63-24.53c1.39-2.94,3.77-5.29,6.71-6.67l13.71-6.39c3.12-1.45,6.01-3.36,8.56-5.66l11.46-10.3,16.86-1.3c1.72-.13,3.05-1.57,3.05-3.3l3.06-12.24,10.72-15.3,6.13-15.3,1.53-15.3-.81-8.87c-.42-4.62-4.06-8.29-8.68-8.76l-5.05-.5c-.36-.04-.72-.05-1.08-.05-1.17,0-2.33.19-3.44.56l-7.91,2.63c-.56.19-1.13.28-1.69.28-1.66,0-3.26-.77-4.29-2.14l-.22-.29c-1.32-1.76-1.92-3.96-1.68-6.15l1.15-10.36c-2.14-.8-4.36-1.19-6.56-1.19-5.36,0-10.58,2.3-14.21,6.53l-.67.78-7.14,15.68c-.34.76-.85,1.43-1.47,1.98-1.78,1.56-5.7,4.98-8.43,7.35-1.24,1.08-2.81,1.65-4.41,1.65-.72,0-1.44-.11-2.14-.35-5.74-1.91-9.22-7.73-8.2-13.69l.68-3.98c.31-1.81.47-3.64.47-5.48,0-3.87,2.03-7.45,5.34-9.43l17.44-10.46c5.17-3.1,9.66-7.24,13.16-12.14l2.34-3.27,10.09-14.4c.41-.58,1.03-.97,1.73-1.09,1.84-.31,3.69-.46,5.52-.46,8.96,0,17.65,3.59,24.02,10.11v4.38c0,4,.72,7.96,2.12,11.7l1.31,3.49c.29.76.99,1.18,1.7,1.18.54,0,1.08-.23,1.44-.73l2.61-3.48,19.91-12.24,9.19-21.42,6.38-12.74c1.72-3.45,5.25-5.62,9.1-5.62h29.03c5.72,0,9.54,5.88,7.22,11.11l-1.19,2.67-12.39,8.25c-3.91,2.6-6.97,6.29-8.82,10.6l-2.59,6.05c-2.49,5.81-5.85,11.2-9.97,16l-3.81,4.45c-3.78,4.41-1.5,11.26,4.17,12.52.21.05.43.07.64.07.59,0,1.18-.18,1.68-.52l51.66-35.53c.55-.38.88-1.01.88-1.68,0-5.91,3.04-11.4,8.05-14.53l24.21-15.15c2.93-1.83,5.22-4.52,6.55-7.71,1.22-2.92,2.75-6.58,3.91-9.34,1.12-2.68,1.49-5.6,1.08-8.47h0c-.59-4.1.13-8.29,2.06-11.96L371.48.02c-1.59-.01-3.13-.02-4.7-.02h0Z"/>
      </g>
      <path class="cls-8" d="M304.18,108.73l-5.69.71c-3.69.46-6.86,2.85-8.33,6.27l-.85,1.99c-.6,1.4.56,2.93,2.08,2.71l4.09-.58c.58-.08,1.13-.29,1.62-.61l11.97-7.84c.7-.46.52-1.52-.29-1.72l-3.43-.86c-.38-.1-.77-.12-1.16-.07Z"/>
      <path class="cls-7" d="M326.19,87.23l-2.8-.7c-1.69-.42-3.33.86-3.33,2.6v12.21c0,.71,1.62,4.78,2.94,7.97.71,1.72,3.04,1.99,4.13.47l3.52-4.93c1.08-1.51,1.66-3.32,1.66-5.18v-3.11c0-2.99-1.41-5.8-3.8-7.59l-2.33-1.74Z"/>
      <g>
        <path class="cls-3" d="M116.4,345.46c-10.1,0-15.67-1.4-15.67-3.93v-.17l-3.12-4.07c-.47-1.16-3.61-8.82-5.02-10.24-.96-.96-2.19-2.83-3.63-4.99-1.52-2.3-3.25-4.9-5.11-7.14-2.06-2.46-3.4-5.55-3.88-8.93-.71-4.98,1.83-9.84,6.33-12.09.85-.43,1.76-.71,2.71-.84.36-.05.73-.08,1.09-.08,4.15,0,7.75,3.28,8.37,7.62l1.25,8.74c.02.15.07.28.15.41l2.09,3.48c2.52,4.2,4.67,8.65,6.39,13.23.06.15.14.28.25.39l18.35,18.01s.04.07.03.11c-.02.06-.07.06-.08.06-2.04.16-6.12.42-10.49.42h0Z"/>
        <path class="cls-1" d="M90.1,293.49c3.84,0,7.3,3.16,7.88,7.19l1.25,8.74c.03.21.1.41.21.6l2.09,3.48c2.5,4.17,4.64,8.6,6.35,13.15.08.22.21.41.37.57l17.72,17.39c-2.2.16-5.77.36-9.56.36-11.18,0-15.17-1.77-15.17-3.43v-.34l-.21-.27-2.98-3.88c-.71-1.74-3.66-8.89-5.11-10.34-.92-.92-2.14-2.77-3.56-4.91-1.53-2.31-3.26-4.93-5.14-7.18-2-2.39-3.3-5.39-3.77-8.68-.68-4.77,1.75-9.42,6.06-11.58.8-.4,1.66-.67,2.55-.8.34-.05.68-.07,1.02-.07M90.1,292.49c-.38,0-.77.03-1.16.08-.98.14-1.95.44-2.86.89-4.68,2.34-7.34,7.42-6.6,12.61.48,3.36,1.81,6.57,3.99,9.18,3.61,4.32,6.74,10.13,8.77,12.16,1.41,1.42,4.94,10.13,4.94,10.13l3.06,3.99c0,3.62,8.53,4.43,16.17,4.43,4.4,0,8.51-.27,10.53-.43.51-.04.74-.67.37-1.03l-18.35-18.01c-.06-.06-.11-.13-.14-.21-1.74-4.62-3.89-9.08-6.43-13.31l-2.09-3.48c-.04-.07-.07-.14-.08-.22l-1.25-8.74c-.64-4.51-4.45-8.05-8.87-8.05h0Z"/>
      </g>
      <g>
        <path class="cls-2" d="M150.15,306.44c-.26,0-.48-.18-.52-.42-.26-1.73-1.25-3.28-2.72-4.23l-2.25-1.47h-7.6c-.97,0-1.91-.28-2.72-.82-1.88-1.26-3.01-3.36-3.01-5.62,0-1.99,1.35-3.71,3.28-4.2.51-.13,1.02-.19,1.55-.19.98,0,1.97.23,2.85.67l3.87,1.93c1.58.79,3.31,1.21,5.02,1.21.33,0,.66-.02,1-.05.43-.04.88-.07,1.3-.07,1.25,0,1.61.23,1.71.33,1.09,1.09,1.74,2.36,2.12,3.12.15.29.26.51.35.64,1.44,2.1.92,5.01-1.2,6.64-.46.35-.76.77-.91,1.25l-.07.24c-.19.62-.75,1.03-1.39,1.03h-.67Z"/>
        <path class="cls-1" d="M136.16,289.99c.91,0,1.81.21,2.63.62l3.87,1.93c1.65.82,3.46,1.26,5.25,1.26.35,0,.7-.02,1.04-.05.46-.04.88-.07,1.25-.07,1.07,0,1.36.19,1.36.19,0,0,0,0,0,0,1.03,1.03,1.66,2.26,2.03,2.99.16.3.27.53.39.7,1.29,1.88.81,4.5-1.09,5.96-.53.41-.91.93-1.08,1.5l-.07.24c-.12.4-.49.68-.91.68h-.69c-.28-1.87-1.35-3.54-2.94-4.57l-2.12-1.39-.25-.16h-7.75c-.87,0-1.71-.26-2.44-.74-1.74-1.16-2.79-3.11-2.79-5.21,0-1.76,1.19-3.28,2.9-3.71.47-.12.94-.18,1.42-.18M136.16,288.99c-.56,0-1.12.07-1.67.21-2.15.54-3.66,2.47-3.66,4.68,0,2.43,1.21,4.69,3.23,6.04h0c.89.59,1.93.91,2.99.91h7.45l2.12,1.39c1.36.89,2.26,2.31,2.5,3.89.07.49.51.84,1.01.84h.67c.86,0,1.62-.56,1.87-1.38l.07-.24c.12-.41.4-.74.74-1,2.24-1.73,2.93-4.95,1.3-7.32-.32-.47-1-2.3-2.53-3.83-.36-.36-1.16-.48-2.07-.48-.44,0-.9.03-1.34.07-.32.03-.63.04-.95.04-1.66,0-3.3-.41-4.8-1.15l-3.87-1.93c-.96-.48-2.01-.73-3.07-.73h0Z"/>
      </g>
      <g>
        <path class="cls-4" d="M141.8,350.81c-1.45-.07-2.81-.72-3.78-1.81-1.03-1.15-1.53-2.7-1.36-4.24l.55-4.91c.16-1.45.53-2.86,1.11-4.2l3.7-8.63c.33-1.28,1.42-2.13,2.66-2.13.19,0,.39.02.58.06,1.89.41,3.13,2.22,2.82,4.13-.9,5.47-.9,5.67-.9,5.77v4.82c0,1.51-.42,2.99-1.2,4.28l-4.17,6.85Z"/>
        <path class="cls-1" d="M144.67,325.4c.16,0,.32.02.47.05,1.63.35,2.7,1.92,2.43,3.56-.9,5.51-.9,5.71-.9,5.85v4.82c0,1.42-.39,2.81-1.13,4.02l-4.01,6.58c-1.2-.13-2.33-.71-3.14-1.62-.94-1.05-1.39-2.45-1.23-3.85l.55-4.91c.16-1.4.52-2.76,1.07-4.06l3.7-8.63.03-.07.02-.08c.25-.99,1.14-1.68,2.15-1.68M144.67,324.4c-1.44,0-2.75.98-3.12,2.43l-3.7,8.63c-.59,1.38-.98,2.85-1.14,4.34l-.55,4.91c-.39,3.52,2.37,6.61,5.91,6.61l4.32-7.09c.83-1.37,1.27-2.94,1.27-4.54v-4.82c0-.21.47-3.13.89-5.69.36-2.17-1.06-4.24-3.21-4.7-.23-.05-.46-.07-.68-.07h0Z"/>
      </g>
      <g>
        <path class="cls-6" d="M192.25,390.64c-4.19-2.8-8.76-6.33-8.88-7.19,0-1.5-4.48-7.28-5.95-9.13l1.01-1.01,5.71,1.43,10.61,10.61,5.84,4.39-1.17,2.35-7.18-1.44Z"/>
        <path class="cls-1" d="M178.59,373.85l5.3,1.33,2.86,2.86,3.06,3.06,4.59,4.59.05.05.06.04,5.45,4.09-.82,1.63-6.71-1.34c-3.83-2.57-8.12-5.84-8.58-6.82-.15-1.62-3.45-6.05-5.78-8.99l.5-.5M178.28,372.74l-1.53,1.53s6.12,7.65,6.12,9.18,9.18,7.65,9.18,7.65l7.65,1.53,1.53-3.06-6.12-4.59-4.59-4.59-3.06-3.06-3.06-3.06-6.12-1.53h0Z"/>
      </g>
      <path class="cls-9" d="M367.51,67.87c-1.98.25-4.37,5.09-6.02,11.84-.06.26-.1.54-.1.81v8.85c0,.52.12,1.03.36,1.49l2.52,4.95c.13.25.22.51.28.78l.56,2.54c.45,2.04,2.66,3.14,4.56,2.29l3.51-1.57c1.67-.75,2.41-2.73,1.64-4.39l-2.2-4.74c-.08-.18-.15-.36-.2-.55l-1.73-6.57c-.07-.27-.11-.55-.11-.84v-8.04c0-.47.1-.93.3-1.36l.39-.86c.89-1.95-.28-4.33-2.4-4.6-.02,0-.04,0-.06,0,0,0-.67-.08-1.29,0Z"/>
    </g>
  </g>
</svg>