<?xml version="1.0" encoding="UTF-8"?>
<svg id="Ebene_2" data-name="Ebene 2" xmlns="http://www.w3.org/2000/svg" xmlns:xlink="http://www.w3.org/1999/xlink" viewBox="0 0 512.31 512.31">
  <defs>
    <style>
      .cls-1 {
        fill: #000;
      }

      .cls-1, .cls-2, .cls-3 {
        stroke-width: 0px;
      }

      .cls-4 {
        stroke-width: 2px;
      }

      .cls-4, .cls-5 {
        fill: #fff;
      }

      .cls-4, .cls-5, .cls-6 {
        stroke: #000;
        stroke-miterlimit: 10;
      }

      .cls-5 {
        stroke-width: 3px;
      }

      .cls-2 {
        fill: url(#Unbenannter_Verlauf_100-2);
      }

      .cls-6 {
        fill: none;
        stroke-width: .75px;
      }

      .cls-3 {
        fill: url(#Unbenannter_Verlauf_100);
      }
    </style>
    <radialGradient id="Unbenannter_Verlauf_100" data-name="Unbenannter Verlauf 100" cx="255.01" cy="117.6" fx="255.01" fy="117.6" r="196.03" gradientUnits="userSpaceOnUse">
      <stop offset="0" stop-color="#b61100"/>
      <stop offset=".19" stop-color="#b11000"/>
      <stop offset=".38" stop-color="#a50e00"/>
      <stop offset=".57" stop-color="#910b00"/>
      <stop offset=".76" stop-color="#740700"/>
      <stop offset=".95" stop-color="#4f0100"/>
      <stop offset="1" stop-color="#460000"/>
    </radialGradient>
    <radialGradient id="Unbenannter_Verlauf_100-2" data-name="Unbenannter Verlauf 100" cx="257.09" cy="394.26" fx="257.09" fy="394.26" r="195.65" gradientTransform="translate(-.7 -2.76) rotate(.03) skewX(.06)" xlink:href="#Unbenannter_Verlauf_100"/>
  </defs>
  <g id="eyport_version">
    <g id="eye_open">
      <circle class="cls-5" cx="256.15" cy="256.15" r="254.65"/>
      <g>
        <path class="cls-3" d="M3.04,233.2c5.62-62.72,34.24-120.83,80.69-163.75C130.79,25.95,192.03,2,256.15,2s119.83,21.88,165.9,61.62c45.25,39.03,75.37,92.73,84.92,151.37-61.48-51.45-149.62-80.93-242.1-80.93-103.21,0-200.97,37.04-261.84,99.15Z"/>
        <path class="cls-1" d="M256.15,2.5c30.95,0,61.18,5.51,89.85,16.38,27.7,10.5,53.18,25.68,75.72,45.12,44.82,38.66,74.77,91.74,84.54,149.74-61.52-50.99-149.31-80.18-241.39-80.18-102.79,0-200.18,36.7-261.21,98.3,5.9-62.06,34.38-119.52,80.4-162.04C131.04,26.41,192.15,2.5,256.15,2.5M256.15,1.5C122.79,1.5,13.39,104.02,2.42,234.55c58.72-60.56,154.39-100,262.46-100,96.74,0,183.55,31.6,242.81,81.67C488.52,94.55,383.21,1.5,256.15,1.5h0Z"/>
      </g>
      <ellipse class="cls-4" cx="259.43" cy="256.15" rx="129.24" ry="121.6"/>
      <path class="cls-1" d="M258.88,134.56v243.19c-71.12-.28-128.69-54.61-128.69-121.6s57.57-121.32,128.69-121.6Z"/>
      <g>
        <path class="cls-2" d="M257.66,511.34c-61.05,0-120.33-22.24-166.95-62.62C44.46,408.66,13.99,353.59,4.82,293.52c16.24,14.7,37.1,29.01,60.41,41.45,52.87,28.21,115.6,43.12,181.39,43.12h0c9.08,0,18.31-.29,27.43-.87,91.77-5.77,175.08-40.43,234.75-97.63-5.84,59.89-32.18,116.06-74.26,158.3-43.06,43.22-100.18,69.12-160.84,72.94-5.32.33-10.72.5-16.05.5h-.01Z"/>
        <path class="cls-1" d="M508.19,280.89c-6.09,59.27-32.3,114.81-73.98,156.65-21.06,21.14-45.32,38.14-72.1,50.51-27.79,12.84-57.53,20.34-88.42,22.28-5.32.33-10.71.5-16.02.5-60.93,0-120.11-22.19-166.63-62.5C45.23,408.67,14.94,354.24,5.53,294.84c16.12,14.4,36.61,28.39,59.47,40.58,52.95,28.25,115.75,43.18,181.63,43.18,9.09,0,18.34-.29,27.47-.87,91.39-5.75,174.4-40.11,234.09-96.83M509.45,278.3c-56.03,54.17-138.76,92.35-235.41,98.43-9.22.58-18.36.86-27.41.86-67.47,0-130.06-15.8-181.16-43.06-22.39-11.94-43.93-26.35-61.35-42.33,18.45,125.54,127.07,219.64,253.55,219.64,5.33,0,10.7-.17,16.08-.51,126.94-7.99,224.26-109.24,235.69-233.04h0Z"/>
      </g>
      <path class="cls-6" d="M256.59,353.75c-.33.01-.65.01-.98.01-1.39,0-2.76-.05-4.11-.17,1.69.11,3.38.16,5.09.16Z"/>
    </g>
  </g>
</svg>