<?xml version="1.0" encoding="utf-8"?>
<!-- Generator: Adobe Illustrator 28.3.0, SVG Export Plug-In . SVG Version: 6.00 Build 0)  -->
<svg version="1.1" xmlns="http://www.w3.org/2000/svg" xmlns:xlink="http://www.w3.org/1999/xlink" x="0px" y="0px"
	 viewBox="0 0 991.1 862.9" style="enable-background:new 0 0 991.1 862.9;" xml:space="preserve">
<style type="text/css">
	.st0{display:none;}
	.st1{display:inline;}
	.st2{fill:#B61100;}
</style>
<g id="Ebene_2_00000116947581848865312310000015258859909134423959_" class="st0">
	<g id="Ebene_1-2" class="st1">
		<path class="st2" d="M442.7,370.2l-29.3,2.4l29.2,2.3c0.5,1.2,1.4,2.1,2.5,2.8l2.4,30.2l2.4-29.8c1.6-0.6,2.8-1.8,3.4-3.3
			l28.2-2.3l-28.3-2.3c-0.7-1.4-1.9-2.5-3.5-3l-2.2-27.3l-2.2,27.7C444.1,368.1,443.2,369.1,442.7,370.2z"/>
	</g>
</g>
<g id="Ebene_3">
	<g id="sparks_00000124135192233438124430000009448448617203164309_">
		<g>
			
				<image style="overflow:visible;opacity:0.59;" width="78" height="79" xlink:href="9417CDA2.png"  transform="matrix(1 0 0 1 358.5 492.375)">
			</image>
			<g>
				<path class="st2" d="M401.1,534.8l22.8-1.8l-22.8-1.8c-0.4-0.9-1.1-1.7-1.9-2.1l-1.9-23.6l-1.9,23.3c-1.2,0.4-2.2,1.4-2.6,2.6
					l-22,1.8l22.1,1.8c0.5,1.1,1.5,2,2.7,2.4l1.7,21.3l1.7-21.6C400,536.3,400.7,535.6,401.1,534.8z"/>
			</g>
		</g>
		<g class="st0">
			
				<image style="display:inline;overflow:visible;opacity:0.59;" width="67" height="68" xlink:href="9417CDA6.png"  transform="matrix(1 0 0 1 189.5 571.375)">
			</image>
			<g class="st1">
				<path class="st2" d="M226.1,607.7l18.4-1.5l-18.3-1.5c-0.3-0.7-0.9-1.3-1.5-1.7l-1.5-19l-1.5,18.7c-1,0.4-1.7,1.1-2.1,2.1
					l-17.7,1.4l17.8,1.4c0.4,0.9,1.2,1.6,2.2,1.9l1.4,17.1l1.4-17.4C225.2,609,225.8,608.4,226.1,607.7z"/>
			</g>
		</g>
		<g>
			
				<image style="overflow:visible;opacity:0.59;" width="93" height="93" xlink:href="9417CDA1.png"  transform="matrix(1 0 0 1 329.5 691.375)">
			</image>
			<g>
				<path class="st2" d="M381.2,742l29.3-2.4l-29.2-2.3c-0.5-1.2-1.4-2.1-2.5-2.8l-2.4-30.3l-2.4,29.8c-1.5,0.6-2.8,1.8-3.4,3.3
					l-28.2,2.3l28.4,2.3c0.7,1.4,1.9,2.5,3.5,3l2.2,27.3l2.2-27.7C379.8,744,380.6,743.1,381.2,742z"/>
			</g>
		</g>
		<g class="st0">
			
				<image style="display:inline;overflow:visible;opacity:0.59;" width="78" height="78" xlink:href="9417CDA3.png"  transform="matrix(1 0 0 1 797.5 396.375)">
			</image>
			<g class="st1">
				<path class="st2" d="M834,438.9l1.8,22.8l1.8-22.8c0.9-0.4,1.7-1.1,2.1-1.9l23.6-1.9l-23.3-1.9c-0.4-1.2-1.4-2.2-2.6-2.6
					l-1.8-22l-1.8,22.1c-1.1,0.5-2,1.5-2.4,2.7l-21.3,1.7L832,437C832.4,437.8,833.1,438.5,834,438.9z"/>
			</g>
		</g>
		<g>
			
				<image style="overflow:visible;opacity:0.59;" width="68" height="67" xlink:href="9417CDA0.png"  transform="matrix(1 0 0 1 658.5 233.375)">
			</image>
			<g>
				<path class="st2" d="M690,270l1.5,18.4L693,270c0.7-0.3,1.3-0.9,1.7-1.5l19-1.5l-18.7-1.5c-0.4-1-1.1-1.7-2.1-2.1l-1.4-17.7
					l-1.4,17.8c-0.9,0.4-1.6,1.2-1.9,2.2L671,267l17.4,1.4C688.8,269.1,689.3,269.6,690,270z"/>
			</g>
		</g>
		<g class="st0">
			
				<image style="display:inline;overflow:visible;opacity:0.59;" width="93" height="93" xlink:href="9417CDAE.png"  transform="matrix(1 0 0 1 584.5 394.375)">
			</image>
			<g class="st1">
				<path class="st2" d="M627.8,446l2.4,29.3l2.3-29.2c1.2-0.5,2.1-1.4,2.8-2.5l30.3-2.4l-29.8-2.4c-0.6-1.5-1.8-2.8-3.3-3.4
					l-2.3-28.2l-2.3,28.4c-1.4,0.7-2.5,1.9-3,3.5l-27.3,2.2l27.7,2.2C625.8,444.6,626.7,445.5,627.8,446z"/>
			</g>
		</g>
		<g>
			
				<image style="overflow:visible;opacity:0.59;" width="93" height="93" xlink:href="9417CDA5.png"  transform="matrix(1 0 0 1 83.5 474.375)">
			</image>
			<g>
				<path class="st2" d="M126.1,525.7l2.4,29.3l2.3-29.2c1.2-0.5,2.1-1.4,2.8-2.5l30.3-2.4l-29.8-2.4c-0.6-1.5-1.8-2.8-3.3-3.4
					l-2.3-28.2l-2.3,28.4c-1.4,0.7-2.5,1.9-3,3.5L95.8,521l27.7,2.2C124.1,524.3,125,525.2,126.1,525.7z"/>
			</g>
		</g>
		<g class="st0">
			
				<image style="display:inline;overflow:visible;opacity:0.59;" width="68" height="68" xlink:href="9417CDA7.png"  transform="matrix(1 0 0 1 411.5 303.375)">
			</image>
			<g class="st1">
				<path class="st2" d="M448.4,339.9l18.4-1.5l-18.3-1.5c-0.3-0.7-0.9-1.3-1.5-1.7l-1.5-19l-1.5,18.7c-1,0.4-1.7,1.1-2.1,2.1
					l-17.7,1.4l17.8,1.4c0.4,0.9,1.2,1.6,2.2,1.9l1.4,17.1l1.4-17.4C447.5,341.2,448.1,340.6,448.4,339.9z"/>
			</g>
		</g>
		<g>
			
				<image style="overflow:visible;opacity:0.59;" width="68" height="67" xlink:href="9417CDA4.png"  transform="matrix(1 0 0 1 631.5 549.375)">
			</image>
			<g>
				<path class="st2" d="M668.2,585.1l18.4-1.5l-18.3-1.5c-0.3-0.7-0.9-1.3-1.5-1.7l-1.5-19l-1.5,18.7c-1,0.4-1.7,1.1-2.1,2.1
					l-17.7,1.4l17.8,1.4c0.4,0.9,1.2,1.6,2.2,1.9l1.4,17.1l1.4-17.4C667.3,586.3,667.9,585.8,668.2,585.1z"/>
			</g>
		</g>
		<g class="st0">
			
				<image style="display:inline;overflow:visible;opacity:0.59;" width="68" height="68" xlink:href="6770B8B5.png"  transform="matrix(1 0 0 1 202.5 346.375)">
			</image>
			<g class="st1">
				<path class="st2" d="M239.2,382.6l18.4-1.5l-18.3-1.5c-0.3-0.7-0.9-1.3-1.5-1.7l-1.5-19l-1.5,18.7c-1,0.4-1.7,1.1-2.1,2.1
					l-17.7,1.4l17.8,1.4c0.4,0.9,1.2,1.6,2.2,1.9l1.4,17.1l1.4-17.4C238.3,383.8,238.9,383.3,239.2,382.6z"/>
			</g>
		</g>
		<g>
			
				<image style="overflow:visible;opacity:0.59;" width="68" height="68" xlink:href="6770B8CB.png"  transform="matrix(1 0 0 1 817.5 150.375)">
			</image>
			<g>
				<path class="st2" d="M848.3,181.9l-18.4,1.5l18.3,1.5c0.3,0.7,0.9,1.3,1.5,1.7l1.5,19l1.5-18.7c1-0.4,1.7-1.1,2.1-2.1l17.7-1.4
					l-17.8-1.4c-0.4-0.9-1.2-1.6-2.2-1.9l-1.4-17.1l-1.4,17.4C849.1,180.6,848.6,181.2,848.3,181.9z"/>
			</g>
		</g>
		<g class="st0">
			
				<image style="display:inline;overflow:visible;opacity:0.59;" width="93" height="93" xlink:href="6770B8CD.png"  transform="matrix(1 0 0 1 495.5 95.375)">
			</image>
			<g class="st1">
				<path class="st2" d="M537.2,138.7l-29.3,2.4l29.2,2.3c0.5,1.2,1.4,2.1,2.5,2.8l2.4,30.3l2.4-29.8c1.5-0.6,2.8-1.8,3.4-3.3
					l28.2-2.3l-28.4-2.3c-0.7-1.4-1.9-2.5-3.5-3l-2.2-27.3l-2.2,27.7C538.6,136.6,537.7,137.5,537.2,138.7z"/>
			</g>
		</g>
		<g class="st0">
			
				<image style="display:inline;overflow:visible;opacity:0.59;" width="68" height="68" xlink:href="6770B8CF.png"  transform="matrix(1 0 0 1 817.5 40.375)">
			</image>
			<g class="st1">
				<path class="st2" d="M849.2,77.1l1.5,18.4l1.5-18.3c0.7-0.3,1.3-0.9,1.7-1.5l19-1.5l-18.7-1.5c-0.4-1-1.1-1.7-2.1-2.1l-1.4-17.7
					l-1.4,17.8c-0.9,0.4-1.6,1.2-1.9,2.2l-17.1,1.4l17.4,1.4C847.9,76.2,848.5,76.7,849.2,77.1z"/>
			</g>
		</g>
	</g>
</g>
</svg>
